<svg width="335" height="206" viewBox="0 0 335 206" fill="none" xmlns="http://www.w3.org/2000/svg">
<rect width="335" height="206" rx="15" fill="black"/>
<path d="M23.1328 144.547H27.7891L29.5859 151.516L31.375 144.547H36.0156V156H33.125V147.266L30.8828 156H28.2656L26.0312 147.266V156H23.1328V144.547ZM37.8359 150.281C37.8359 148.411 38.3568 146.956 39.3984 145.914C40.4401 144.872 41.8906 144.352 43.75 144.352C45.6562 144.352 47.125 144.865 48.1562 145.891C49.1875 146.911 49.7031 148.344 49.7031 150.188C49.7031 151.526 49.4766 152.625 49.0234 153.484C48.5755 154.339 47.9245 155.005 47.0703 155.484C46.2214 155.958 45.1615 156.195 43.8906 156.195C42.599 156.195 41.5286 155.99 40.6797 155.578C39.8359 155.167 39.151 154.516 38.625 153.625C38.099 152.734 37.8359 151.62 37.8359 150.281ZM41.375 150.297C41.375 151.453 41.5885 152.284 42.0156 152.789C42.4479 153.294 43.0339 153.547 43.7734 153.547C44.5339 153.547 45.1224 153.299 45.5391 152.805C45.9557 152.31 46.1641 151.422 46.1641 150.141C46.1641 149.062 45.9453 148.276 45.5078 147.781C45.0755 147.281 44.487 147.031 43.7422 147.031C43.0286 147.031 42.4557 147.284 42.0234 147.789C41.5911 148.294 41.375 149.13 41.375 150.297ZM51.6328 144.547H54.9375L59.25 150.883V144.547H62.5859V156H59.25L54.9609 149.711V156H51.6328V144.547ZM64.4922 150.281C64.4922 148.411 65.013 146.956 66.0547 145.914C67.0964 144.872 68.5469 144.352 70.4062 144.352C72.3125 144.352 73.7812 144.865 74.8125 145.891C75.8438 146.911 76.3594 148.344 76.3594 150.188C76.3594 151.526 76.1328 152.625 75.6797 153.484C75.2318 154.339 74.5807 155.005 73.7266 155.484C72.8776 155.958 71.8177 156.195 70.5469 156.195C69.2552 156.195 68.1849 155.99 67.3359 155.578C66.4922 155.167 65.8073 154.516 65.2812 153.625C64.7552 152.734 64.4922 151.62 64.4922 150.281ZM68.0312 150.297C68.0312 151.453 68.2448 152.284 68.6719 152.789C69.1042 153.294 69.6901 153.547 70.4297 153.547C71.1901 153.547 71.7786 153.299 72.1953 152.805C72.612 152.31 72.8203 151.422 72.8203 150.141C72.8203 149.062 72.6016 148.276 72.1641 147.781C71.7318 147.281 71.1432 147.031 70.3984 147.031C69.6849 147.031 69.112 147.284 68.6797 147.789C68.2474 148.294 68.0312 149.13 68.0312 150.297ZM84.0234 151.852V149.469H89.4922V154.352C88.4453 155.065 87.5182 155.552 86.7109 155.812C85.9089 156.068 84.9557 156.195 83.8516 156.195C82.4922 156.195 81.3828 155.964 80.5234 155.5C79.6693 155.036 79.0052 154.346 78.5312 153.43C78.0625 152.513 77.8281 151.461 77.8281 150.273C77.8281 149.023 78.0859 147.938 78.6016 147.016C79.1172 146.089 79.8724 145.385 80.8672 144.906C81.6432 144.536 82.6875 144.352 84 144.352C85.2656 144.352 86.2109 144.466 86.8359 144.695C87.4661 144.924 87.987 145.281 88.3984 145.766C88.8151 146.245 89.1276 146.854 89.3359 147.594L85.9219 148.203C85.7812 147.771 85.5417 147.44 85.2031 147.211C84.8698 146.982 84.4427 146.867 83.9219 146.867C83.1458 146.867 82.526 147.138 82.0625 147.68C81.6042 148.216 81.375 149.068 81.375 150.234C81.375 151.474 81.6068 152.359 82.0703 152.891C82.5391 153.422 83.1901 153.688 84.0234 153.688C84.4193 153.688 84.7969 153.63 85.1562 153.516C85.5156 153.401 85.9271 153.206 86.3906 152.93V151.852H84.0234ZM91.6406 156V144.547H97.5391C98.6328 144.547 99.4688 144.641 100.047 144.828C100.625 145.016 101.091 145.365 101.445 145.875C101.799 146.38 101.977 146.997 101.977 147.727C101.977 148.362 101.841 148.911 101.57 149.375C101.299 149.833 100.927 150.206 100.453 150.492C100.151 150.674 99.737 150.826 99.2109 150.945C99.6328 151.086 99.9401 151.227 100.133 151.367C100.263 151.461 100.451 151.661 100.695 151.969C100.945 152.276 101.112 152.513 101.195 152.68L102.906 156H98.9062L97.0156 152.5C96.776 152.047 96.5625 151.753 96.375 151.617C96.1198 151.44 95.8307 151.352 95.5078 151.352H95.1953V156H91.6406ZM95.1953 149.188H96.6875C96.849 149.188 97.1615 149.135 97.625 149.031C97.8594 148.984 98.0495 148.865 98.1953 148.672C98.3464 148.479 98.4219 148.258 98.4219 148.008C98.4219 147.638 98.3047 147.354 98.0703 147.156C97.8359 146.958 97.3958 146.859 96.75 146.859H95.1953V149.188ZM111.094 154.109H107.062L106.508 156H102.891L107.195 144.547H111.055L115.359 156H111.656L111.094 154.109ZM110.352 151.633L109.086 147.516L107.828 151.633H110.352ZM116.484 144.547H122.367C123.648 144.547 124.607 144.852 125.242 145.461C125.883 146.07 126.203 146.938 126.203 148.062C126.203 149.219 125.854 150.122 125.156 150.773C124.464 151.424 123.404 151.75 121.977 151.75H120.039V156H116.484V144.547ZM120.039 149.43H120.906C121.589 149.43 122.068 149.312 122.344 149.078C122.62 148.839 122.758 148.534 122.758 148.164C122.758 147.805 122.638 147.5 122.398 147.25C122.159 147 121.708 146.875 121.047 146.875H120.039V149.43ZM128.078 144.547H131.617V148.555H135.484V144.547H139.039V156H135.484V151.367H131.617V156H128.078V144.547ZM140.234 144.547H144.164L146.477 148.414L148.789 144.547H152.695L148.242 151.203V156H144.695V151.203L140.234 144.547Z" fill="white"/>
<rect x="225" y="170" width="40" height="12" fill="#C4C4C4"/>
<rect x="98" y="170" width="108" height="12" fill="#C4C4C4"/>
<rect x="22" y="170" width="58" height="12" fill="#C4C4C4"/>
<rect x="241" y="32" width="49" height="41" fill="white"/>
</svg>
