<svg width="965" height="351" viewBox="0 0 965 351" fill="none" xmlns="http://www.w3.org/2000/svg">
<path d="M0 145.199H28.6093L39.5482 188.133L50.487 145.199H79.0375V215.74H61.2408V161.954L47.542 215.74H31.4366L17.7462 161.954V215.74H0V145.199Z" fill="black"/>
<path d="M90.1614 180.525C90.1614 169.006 93.3589 160.04 99.754 153.627C106.149 147.215 115.052 144.006 126.462 144C138.158 144 147.173 147.15 153.506 153.45C159.839 159.75 163.003 168.583 162.997 179.95C162.997 188.209 161.617 194.949 158.857 200.218C156.157 205.421 151.986 209.708 146.867 212.54C141.641 215.461 135.086 216.948 127.32 216.948C119.393 216.948 112.836 215.675 107.647 213.131C102.337 210.473 97.9415 206.282 95.025 201.097C91.777 195.658 90.1558 188.801 90.1614 180.525ZM111.879 180.626C111.879 187.748 113.2 192.868 115.843 195.987C118.485 199.106 122.072 200.657 126.605 200.641C131.272 200.641 134.885 199.115 137.443 196.063C140.001 193.012 141.28 187.545 141.28 179.663C141.28 173.014 139.947 168.158 137.283 165.096C134.618 162.033 130.994 160.504 126.411 160.51C124.416 160.436 122.429 160.817 120.602 161.625C118.774 162.432 117.153 163.645 115.859 165.172C113.228 168.291 111.913 173.442 111.913 180.626H111.879Z" fill="black"/>
<path d="M174.845 145.199H195.132L221.604 184.24V145.199H242.077V215.74H221.604L195.275 176.995V215.74H174.845V145.199Z" fill="black"/>
<path d="M253.782 180.525C253.782 169.006 256.976 160.04 263.366 153.627C269.755 147.215 278.66 144.006 290.082 144C301.778 144 310.793 147.15 317.126 153.45C323.459 159.75 326.623 168.583 326.618 179.95C326.618 188.209 325.238 194.949 322.478 200.218C319.779 205.426 315.611 209.72 310.495 212.565C305.27 215.487 298.715 216.973 290.948 216.973C283.022 216.973 276.461 215.701 271.267 213.156C265.956 210.5 261.56 206.308 258.645 201.122C255.397 195.666 253.776 188.801 253.782 180.525ZM275.499 180.626C275.499 187.748 276.82 192.868 279.463 195.987C282.105 199.106 285.692 200.657 290.225 200.641C294.895 200.641 298.496 199.12 301.063 196.063C303.629 193.006 304.9 187.551 304.9 179.663C304.9 173.014 303.565 168.158 300.894 165.096C298.219 162.039 294.609 160.51 290.031 160.51C288.036 160.436 286.05 160.817 284.222 161.625C282.394 162.432 280.773 163.645 279.479 165.172C276.82 168.291 275.494 173.442 275.499 180.626Z" fill="black"/>
<path d="M373.663 190.211V175.525H407.262V205.606C400.833 210.014 395.154 213.012 390.223 214.6C384.517 216.295 378.586 217.101 372.636 216.99C364.295 216.99 357.496 215.557 352.24 212.692C346.917 209.82 342.619 205.354 339.946 199.914C336.965 193.884 335.476 187.221 335.604 180.491C335.604 172.806 337.186 166.112 340.35 160.409C343.501 154.713 348.367 150.163 354.251 147.412C359.019 145.132 365.431 144.006 373.486 144.034C381.256 144.034 387.067 144.74 390.921 146.154C394.638 147.45 397.951 149.7 400.531 152.681C403.245 155.977 405.204 159.832 406.269 163.972L385.317 167.722C384.587 165.247 383.041 163.094 380.933 161.616C378.579 160.119 375.825 159.38 373.04 159.497C368.272 159.497 364.477 161.155 361.656 164.471C358.834 167.787 357.417 173.054 357.406 180.271C357.406 187.894 358.837 193.35 361.698 196.638C364.559 199.926 368.547 201.561 373.663 201.544C376.02 201.557 378.366 201.201 380.613 200.489C383.264 199.566 385.804 198.351 388.187 196.866V190.245L373.663 190.211Z" fill="black"/>
<path d="M420.406 215.74V145.199H456.588C463.32 145.199 468.419 145.782 471.97 146.888C475.468 148.008 478.493 150.27 480.561 153.315C482.111 155.557 483.185 158.095 483.718 160.771C484.251 163.447 484.231 166.204 483.659 168.872C483.087 171.54 481.976 174.062 480.393 176.281C478.811 178.5 476.792 180.37 474.46 181.774C472.077 183.103 469.502 184.052 466.828 184.587C468.828 185.171 470.735 186.038 472.491 187.162C473.783 188.275 474.946 189.53 475.958 190.903C477.109 192.261 478.132 193.722 479.013 195.27L489.556 215.74H465.002L453.399 194.18C451.918 191.385 450.614 189.578 449.469 188.733C447.906 187.654 446.048 187.088 444.151 187.112H442.233V215.74H420.406ZM442.233 173.769H451.388C453.329 173.625 455.253 173.303 457.135 172.806C458.546 172.535 459.806 171.746 460.669 170.593C461.568 169.423 462.049 167.983 462.032 166.506C462.094 165.525 461.932 164.543 461.558 163.634C461.185 162.725 460.611 161.914 459.878 161.262C458.442 160.034 455.738 159.423 451.766 159.429H442.233V173.769Z" fill="black"/>
<path d="M539.732 204.111H515.069L511.653 215.74H489.48L515.893 145.182H539.58L566.01 215.74H543.291L539.732 204.111ZM535.23 188.86L527.48 163.525L519.781 188.86H535.23Z" fill="black"/>
<path d="M572.818 145.199H608.941C616.795 145.199 622.685 147.077 626.612 150.832C630.538 154.587 632.502 159.936 632.502 166.877C632.502 173.994 630.367 179.556 626.098 183.565C621.829 187.573 615.311 189.572 606.543 189.561H594.653V215.74H572.776L572.818 145.199ZM594.695 175.28H599.954C604.162 175.28 607.09 174.554 608.781 173.085C609.595 172.402 610.244 171.544 610.681 170.575C611.118 169.605 611.332 168.549 611.306 167.485C611.325 166.447 611.141 165.415 610.762 164.449C610.384 163.482 609.819 162.6 609.101 161.853C607.62 160.316 604.894 159.547 600.796 159.547H594.653L594.695 175.28Z" fill="black"/>
<path d="M643.929 145.199H665.663V169.892H689.384V145.199H711.262V215.74H689.384V187.205H665.663V215.74H643.929V145.199Z" fill="black"/>
<path d="M718.54 145.199H742.673L756.826 169.006L771.021 145.199H795.036L767.706 186.183V215.74H745.938V186.183L718.54 145.199Z" fill="black"/>
<path d="M542.781 292.922L561.391 298.547C560.141 303.766 558.172 308.125 555.484 311.625C552.797 315.125 549.453 317.766 545.453 319.547C541.484 321.328 536.422 322.219 530.266 322.219C522.797 322.219 516.688 321.141 511.938 318.984C507.219 316.797 503.141 312.969 499.703 307.5C496.266 302.031 494.547 295.031 494.547 286.5C494.547 275.125 497.562 266.391 503.594 260.297C509.656 254.172 518.219 251.109 529.281 251.109C537.938 251.109 544.734 252.859 549.672 256.359C554.641 259.859 558.328 265.234 560.734 272.484L541.984 276.656C541.328 274.562 540.641 273.031 539.922 272.062C538.734 270.438 537.281 269.188 535.562 268.312C533.844 267.438 531.922 267 529.797 267C524.984 267 521.297 268.938 518.734 272.812C516.797 275.688 515.828 280.203 515.828 286.359C515.828 293.984 516.984 299.219 519.297 302.062C521.609 304.875 524.859 306.281 529.047 306.281C533.109 306.281 536.172 305.141 538.234 302.859C540.328 300.578 541.844 297.266 542.781 292.922ZM616.469 252.281H637.656V293.25C637.656 297.312 637.016 301.156 635.734 304.781C634.484 308.375 632.5 311.531 629.781 314.25C627.094 316.938 624.266 318.828 621.297 319.922C617.172 321.453 612.219 322.219 606.438 322.219C603.094 322.219 599.438 321.984 595.469 321.516C591.531 321.047 588.234 320.125 585.578 318.75C582.922 317.344 580.484 315.359 578.266 312.797C576.078 310.234 574.578 307.594 573.766 304.875C572.453 300.5 571.797 296.625 571.797 293.25V252.281H592.984V294.234C592.984 297.984 594.016 300.922 596.078 303.047C598.172 305.141 601.062 306.188 604.75 306.188C608.406 306.188 611.266 305.156 613.328 303.094C615.422 301 616.469 298.047 616.469 294.234V252.281ZM651.766 252.281H691.516C698.141 252.281 703.219 253.922 706.75 257.203C710.312 260.484 712.094 264.547 712.094 269.391C712.094 273.453 710.828 276.938 708.297 279.844C706.609 281.781 704.141 283.312 700.891 284.438C705.828 285.625 709.453 287.672 711.766 290.578C714.109 293.453 715.281 297.078 715.281 301.453C715.281 305.016 714.453 308.219 712.797 311.062C711.141 313.906 708.875 316.156 706 317.812C704.219 318.844 701.531 319.594 697.938 320.062C693.156 320.688 689.984 321 688.422 321H651.766V252.281ZM673.188 279.234H682.422C685.734 279.234 688.031 278.672 689.312 277.547C690.625 276.391 691.281 274.734 691.281 272.578C691.281 270.578 690.625 269.016 689.312 267.891C688.031 266.766 685.781 266.203 682.562 266.203H673.188V279.234ZM673.188 306.234H684.016C687.672 306.234 690.25 305.594 691.75 304.312C693.25 303 694 301.25 694 299.062C694 297.031 693.25 295.406 691.75 294.188C690.281 292.938 687.688 292.312 683.969 292.312H673.188V306.234ZM726.391 252.281H783.297V266.953H747.672V277.875H780.719V291.891H747.672V305.438H784.328V321H726.391V252.281Z" fill="black"/>
<line x1="724" y1="115" x2="724" y2="10" stroke="black" stroke-width="10"/>
<path d="M719 5H965" stroke="black" stroke-width="10"/>
<path d="M960 3L960 247" stroke="black" stroke-width="10"/>
<line x1="965" y1="242" x2="799" y2="242" stroke="black" stroke-width="10"/>
</svg>

