<svg width="198" height="198" viewBox="0 0 198 198" fill="none" xmlns="http://www.w3.org/2000/svg">
<circle cx="99" cy="99" r="94" stroke="black" stroke-width="10"/>
<path d="M117.875 119H79.6875C80.125 115.229 81.4479 111.688 83.6562 108.375C85.8854 105.042 90.0521 101.115 96.1562 96.5938C99.8854 93.8229 102.271 91.7188 103.312 90.2812C104.354 88.8438 104.875 87.4792 104.875 86.1875C104.875 84.7917 104.354 83.6042 103.312 82.625C102.292 81.625 101 81.125 99.4375 81.125C97.8125 81.125 96.4792 81.6354 95.4375 82.6562C94.4167 83.6771 93.7292 85.4792 93.375 88.0625L80.625 87.0312C81.125 83.4479 82.0417 80.6562 83.375 78.6562C84.7083 76.6354 86.5833 75.0938 89 74.0312C91.4375 72.9479 94.8021 72.4062 99.0938 72.4062C103.573 72.4062 107.052 72.9167 109.531 73.9375C112.031 74.9583 113.99 76.5312 115.406 78.6562C116.844 80.7604 117.562 83.125 117.562 85.75C117.562 88.5417 116.74 91.2083 115.094 93.75C113.469 96.2917 110.5 99.0833 106.188 102.125C103.625 103.896 101.906 105.135 101.031 105.844C100.177 106.552 99.1667 107.479 98 108.625H117.875V119Z" fill="black"/>
</svg>
