<svg width="198" height="198" viewBox="0 0 198 198" fill="none" xmlns="http://www.w3.org/2000/svg">
<circle cx="99" cy="99" r="94" stroke="black" stroke-width="10"/>
<path d="M116.469 88.5L103.812 90.0625C103.479 88.2917 102.917 87.0417 102.125 86.3125C101.354 85.5833 100.396 85.2188 99.25 85.2188C97.1875 85.2188 95.5833 86.2604 94.4375 88.3438C93.6042 89.8438 92.9896 93.0521 92.5938 97.9688C94.1146 96.4271 95.6771 95.2917 97.2812 94.5625C98.8854 93.8125 100.74 93.4375 102.844 93.4375C106.927 93.4375 110.375 94.8958 113.188 97.8125C116.021 100.729 117.438 104.427 117.438 108.906C117.438 111.927 116.719 114.688 115.281 117.188C113.865 119.688 111.885 121.583 109.344 122.875C106.823 124.146 103.656 124.781 99.8438 124.781C95.2604 124.781 91.5833 124 88.8125 122.438C86.0417 120.875 83.8229 118.385 82.1562 114.969C80.5104 111.531 79.6875 106.99 79.6875 101.344C79.6875 93.0729 81.4271 87.0208 84.9062 83.1875C88.3854 79.3333 93.2083 77.4062 99.375 77.4062C103.021 77.4062 105.896 77.8333 108 78.6875C110.125 79.5208 111.885 80.75 113.281 82.375C114.677 84 115.74 86.0417 116.469 88.5ZM93.0312 108.906C93.0312 111.385 93.6562 113.333 94.9062 114.75C96.1562 116.146 97.6875 116.844 99.5 116.844C101.167 116.844 102.562 116.208 103.688 114.938C104.812 113.667 105.375 111.771 105.375 109.25C105.375 106.667 104.792 104.698 103.625 103.344C102.458 101.99 101.01 101.312 99.2812 101.312C97.5104 101.312 96.0208 101.969 94.8125 103.281C93.625 104.594 93.0312 106.469 93.0312 108.906Z" fill="black"/>
</svg>
