<svg width="198" height="198" viewBox="0 0 198 198" fill="none" xmlns="http://www.w3.org/2000/svg">
<circle cx="99" cy="99" r="94" stroke="black" stroke-width="10"/>
<path d="M87.2812 95.375C85.2812 94.3125 83.8229 93.125 82.9062 91.8125C81.6562 90.0208 81.0312 87.9583 81.0312 85.625C81.0312 81.7917 82.8333 78.6562 86.4375 76.2188C89.25 74.3438 92.9688 73.4062 97.5938 73.4062C103.719 73.4062 108.24 74.5729 111.156 76.9062C114.094 79.2396 115.562 82.1771 115.562 85.7188C115.562 87.7812 114.979 89.7083 113.812 91.5C112.938 92.8333 111.562 94.125 109.688 95.375C112.167 96.5625 114.01 98.1354 115.219 100.094C116.448 102.052 117.062 104.219 117.062 106.594C117.062 108.885 116.531 111.031 115.469 113.031C114.427 115.01 113.135 116.542 111.594 117.625C110.073 118.708 108.167 119.5 105.875 120C103.604 120.521 101.177 120.781 98.5938 120.781C93.7396 120.781 90.0312 120.208 87.4688 119.062C84.9062 117.917 82.9583 116.229 81.625 114C80.2917 111.771 79.625 109.281 79.625 106.531C79.625 103.844 80.25 101.573 81.5 99.7188C82.75 97.8438 84.6771 96.3958 87.2812 95.375ZM93 86.375C93 87.9583 93.4896 89.2396 94.4688 90.2188C95.4688 91.1771 96.7917 91.6562 98.4375 91.6562C99.8958 91.6562 101.094 91.1771 102.031 90.2188C102.969 89.2604 103.438 88.0208 103.438 86.5C103.438 84.9167 102.948 83.6354 101.969 82.6562C100.99 81.6562 99.7396 81.1562 98.2188 81.1562C96.6771 81.1562 95.4167 81.6458 94.4375 82.625C93.4792 83.5833 93 84.8333 93 86.375ZM92.3125 106.094C92.3125 108.115 92.9271 109.771 94.1562 111.062C95.3854 112.333 96.7917 112.969 98.375 112.969C99.8958 112.969 101.26 112.323 102.469 111.031C103.677 109.719 104.281 108.062 104.281 106.062C104.281 104.042 103.667 102.385 102.438 101.094C101.229 99.8021 99.8229 99.1562 98.2188 99.1562C96.6354 99.1562 95.25 99.7812 94.0625 101.031C92.8958 102.281 92.3125 103.969 92.3125 106.094Z" fill="black"/>
</svg>
